<svg width="434" height="261" xmlns="http://www.w3.org/2000/svg">
    <g fill="none" fill-rule="evenodd">
        <path d="M263.82.151h-32.64c-3.413 0-6.18 2.776-6.18 6.2v10.6c0 3.424 2.767 6.2 6.18 6.2h32.64c3.413 0 6.18-2.776 6.18-6.2v-10.6c0-3.424-2.767-6.2-6.18-6.2" fill="#4682FC"/>
        <path d="M253.819.151h-32.64c-3.412 0-6.179 2.776-6.179 6.2v10.6c0 3.424 2.767 6.2 6.18 6.2h32.639c3.414 0 6.181-2.776 6.181-6.2v-10.6c0-3.424-2.767-6.2-6.181-6.2" fill="#227CFE"/>
        <path d="M240 6.151a3 3 0 1 1-6.001 0 3 3 0 0 1 6.001 0" fill="#E2F2F1"/>
        <path d="m172 250.552 6.745-3.102s7.156-.672 7.253 0c.096.673-3.945 5.701-4.523 5.701h-8.85l-.625-2.6M318.11 258.151l6.89-3.001s-2.702-2.999-3.447-2.999c-.742 0-6.553 2.769-6.553 2.769l3.11 3.231" fill="#F99247"/>
        <path d="M316.167 245.151H182.833c-4.88 0-8.833 4.039-8.833 9.022v.978h151v-.978c0-4.983-3.954-9.022-8.833-9.022" fill="#227CFE"/>
        <path fill="#4682FC" d="M284 255.151h-54.468l-19.532-115h54.47l19.53 115"/>
        <path d="M396.51 11.151H92.49C85.04 11.151 79 17.194 79 24.65v182.035c0 5.228 3.455 9.467 7.716 9.467h315.568c4.261 0 7.716-4.239 7.716-9.467V24.649c0-7.455-6.04-13.498-13.49-13.498" fill="#227CFE"/>
        <path fill="#227CFE" d="M278 255.151h-54.47l-19.53-115h54.47l19.53 115"/>
        <path d="M402 181.151V24.618c0-7.437-6.04-13.467-13.49-13.467H84.49c-7.45 0-13.49 6.03-13.49 13.467v156.533h331M71 182.151v25.426c0 5.287 3.455 9.574 7.716 9.574h315.568c4.261 0 7.716-4.287 7.716-9.574v-25.426H71" fill="#227CFE"/>
        <path d="M395 175.151V25.265c0-3.929-3.3-7.114-7.367-7.114H86.367c-4.069 0-7.367 3.185-7.367 7.114v149.886h316" fill="#E2F2F1"/>
        <path fill="#FEC786" d="M396 91.151H267v-72.76l122.414-.24 5.896 3.384.69 69.616"/>
        <path d="M395 217.151H79.044c-4.436 0-8.044-4.398-8.044-9.804V24.991c0-7.631 6.202-13.84 13.824-13.84v.638c-7.272 0-13.188 5.922-13.188 13.202v182.356c0 5.054 3.323 9.166 7.408 9.166H395v.638M381.513 199.151l-.513-.341 7.487-9.659.513.342-7.487 9.658M381.51 204.151l-.51-.356 7.49-9.644.51.356-7.49 9.644" fill="#21111D"/>
        <path d="M395 175.151H78v-.633h316.361V25.554c0-3.732-3.168-6.768-7.062-6.768v-.635c4.245 0 7.701 3.321 7.701 7.403V175.15" fill="#21111D"/>
        <path d="M318 259.151c0-5.523-4.384-10-9.792-10H176.79c-5.406 0-9.79 4.477-9.79 10h151" fill="#227CFE"/>
        <path fill="#21111D" d="m224.512 226.151-.512-.32 3.486-6.68.514.322-3.488 6.678M224.557 230.151l-.557-.316 3.443-5.684.557.316-3.443 5.684"/>
        <path fill="#7FC6A6" d="M137 91.151h129v-73H137z"/>
        <path fill="#FFCABA" d="M138 167.151h128v-75H138z"/>
        <path d="M136 18.151H86.38c-4.076 0-7.38 3.185-7.38 7.114v149.886h57v-157" fill="#61A3C5"/>
        <path d="M79.91 174.238h314.18V25.226c0-3.398-2.877-6.162-6.413-6.162H86.324c-3.536 0-6.413 2.764-6.413 6.162v149.012zM396 176.151H78V25.226c0-4.453 3.734-8.075 8.324-8.075h301.353c4.59 0 8.323 3.622 8.323 8.075V176.15z" fill="#21111D"/>
        <path d="M205.055 32.177c.322-2.207 2.396-4.016 4.614-4.026.233 0 .47.017.687.102.246.098.452.277.69.395.582.286 1.36.21 1.785.7.462.53.208 1.352.344 2.043.103.526.438.974.63 1.474.377.981.171 2.111-.306 3.047-.48.935-1.207 1.713-1.925 2.478-.588.627-1.201 1.272-1.996 1.59-1.56.621-2.715-.541-3.21-1.912-.661-1.832-1.606-3.9-1.313-5.891" fill="#FEC786"/>
        <path d="M196.556 41.593s-4.496 12.752-5.04 13.825c-.54 1.073-3.291 6.019-2.304 11.842C190.199 73.083 208 75.15 208 75.15l-.324-39.96s-7.95-.953-11.12 6.402" fill="#FEC786"/>
        <path d="M217.444 41.593s4.496 12.752 5.04 13.825c.54 1.073 3.291 6.019 2.304 11.842C223.801 73.083 206 75.15 206 75.15l.324-39.96s7.95-.953 11.12 6.402" fill="#FEC786"/>
        <path d="m200 44.717 9.912-8.566L211 44.307s-6.547 1.844-6.797 1.844S200 44.717 200 44.717" fill="#FE9F73"/>
        <path d="M249 90.151c-3.812-8.904-7.795-17.452-9.518-18.717-3.766-2.765-28.633-3.017-28.633-3.017s-18.084-.943-27.628.723c0 0-10.548.409-15.823 11.346-1.352 2.804-2.878 6.186-4.398 9.665h86" fill="#FEBAC7"/>
        <path d="M229 69.181c-8.102-.687-17.547-.778-17.547-.778s-17.945-.89-27.453.678c2.909 2.605 12.171 9.75 25.61 9.018 9.933-.54 16.084-5.271 19.39-8.918" fill="#FE9F73"/>
        <path fill="#FE9F73" d="m213 68.151-11-.186.592-8.814h9.284l1.124 9"/>
        <path d="M202 63.207c1.067.968 2.526 1.742 3.902 1.935.228.005.463.007.702.008v.001h.099c.24-.002.475-.004.702-.009 1.614-.227 3.402-1.221 4.595-2.472l-.398-3.519h-9.355L202 63.207" fill="#F07162"/>
        <path d="M213.493 42.666c-.432-.929-.996-1.548-1.55-1.962a16.486 16.486 0 0 0-5.298-1.553h-.292c-2.34.28-4.175.999-5.297 1.553-.553.414-1.117 1.033-1.549 1.962-.206 1.713-.457 4.874-.505 8.032-.043 2.838.67 5.643 2.128 7.94 1.1 1.73 2.678 3.28 4.866 3.509.15.002.31.004.47.004h.066c.163 0 .321-.002.473-.004 2.187-.228 3.766-1.78 4.865-3.51 1.459-2.296 2.169-5.101 2.128-7.94-.048-3.157-.298-6.318-.505-8.03" fill="#FE9F73"/>
        <path d="M212 52.651a2.5 2.5 0 1 0 5 0 2.5 2.5 0 0 0-5 0" fill="#FE9F73"/>
        <path d="M214.984 55.151c.514 0 .856-.422.968-.845.134-.5-.018-.986-.388-1.238-.528-.36-1.009-.15-1.269.03.105-.285.266-.494.479-.622.478-.288 1.068-.078 1.075-.075.04.014.085-.01.1-.055.012-.045-.01-.093-.05-.109-.028-.01-.664-.236-1.2.088-.312.188-.525.519-.631.985l-.068.298.2-.217c.024-.026.601-.64 1.281-.177.374.255.407.722.32 1.044-.089.337-.36.727-.83.721-.042 0-.078.037-.078.085 0 .048.033.087.077.087h.014" fill="#F07162"/>
        <path d="M201 52.651a2.5 2.5 0 1 1-5 0 2.5 2.5 0 0 1 5 0" fill="#FE9F73"/>
        <path d="M199.016 55.151c-.514 0-.857-.422-.968-.845-.134-.5.02-.986.39-1.238.528-.36 1.007-.15 1.269.03-.107-.285-.266-.494-.479-.622-.48-.288-1.07-.078-1.076-.075-.042.014-.086-.01-.099-.055-.015-.045.007-.093.05-.109.025-.01.661-.236 1.2.088.312.188.523.519.63.985l.067.298-.2-.217c-.024-.026-.6-.64-1.28-.177-.375.255-.408.722-.322 1.044.09.337.361.727.83.721.043 0 .08.037.081.085 0 .048-.035.087-.079.087h-.014M206.412 56.151a.102.102 0 0 0 .099-.082.104.104 0 0 0-.079-.124c-.648-.144-1.058-.973-1.176-1.244.922-.51 1.486-1.174 1.674-1.974.307-1.304-.492-2.482-.525-2.532a.101.101 0 0 0-.142-.024.106.106 0 0 0-.023.145c.009.012.778 1.153.494 2.363-.18.762-.735 1.394-1.654 1.881l-.08.043.033.088c.019.051.477 1.263 1.358 1.458l.02.002" fill="#F07162"/>
        <path d="M204 51.651a.5.5 0 1 1-1 0 .5.5 0 0 1 1 0M210 51.651a.5.5 0 1 0 1 0 .5.5 0 0 0-1 0" fill="#000"/>
        <path d="M198.165 51.151s9.592-4.615 10.382-10.494l1.958-2.826-.867 3.261s2.645 9.555 6.756 10.022c0 0 3.593-12.977-6.717-15.555-10.312-2.577-12.336 7.589-11.512 15.592" fill="#FEC786"/>
        <path fill="#21111D" d="m179.625 89.151-.625-.137 2.375-9.863.625.138-2.375 9.862M233.375 89.151 231 79.29l.625-.138L234 89.014l-.625.137M210.12 87.151l-.12-.413c7.098-2.255 14.598-12.484 14.672-12.587l.328.261c-.075.105-7.652 10.443-14.88 12.74M190.787 78.151 187 75.496l.211-.345L191 77.807l-.213.344M190.749 81.151 188 78.49l.25-.338 2.75 2.663-.251.337"/>
        <path d="M205 56.27c.047-.015 3-.119 3-.119s-.374 1.957-1.47 2c-1.098.043-1.53-1.882-1.53-1.882" fill="#FBFDFC"/>
        <path d="M211.778 50.151c-.05 0-.1-.014-.142-.043-1.37-.971-3.325-.436-3.345-.43-.115.032-.239-.02-.279-.117-.04-.096.022-.2.138-.234.09-.025 2.21-.608 3.771.5.094.065.106.181.026.26a.241.241 0 0 1-.17.064M201.22 50.151a.233.233 0 0 1-.17-.071c-.078-.083-.062-.205.031-.272 1.59-1.125 3.685-.47 3.774-.441.114.036.173.147.132.247-.042.1-.17.151-.283.115-.02-.006-1.953-.606-3.346.38a.235.235 0 0 1-.138.042" fill="#FEC786"/>
        <path d="M200 56.151s.844 6.085 6 6l-6-6M214 54.957s-.845 7.293-6 7.193l3.782-9.999L214 54.957" fill="#FE9F73"/>
        <path d="M212.79 36.151a.18.18 0 0 1-.065-.012c-4.355-1.653-7.14-1.582-8.412-1.393a1.46 1.46 0 0 1-.09.012c-.12.005-.215-.095-.223-.232-.007-.137.08-.256.196-.266l.065-.01c1.308-.194 4.16-.268 8.593 1.414.11.042.172.183.136.314-.029.106-.11.173-.2.173M197.21 49.151a.21.21 0 0 1-.2-.144.208.208 0 0 1 .135-.26c6.698-2.11 9.427-8.405 9.453-8.469a.21.21 0 0 1 .273-.11.208.208 0 0 1 .114.27c-.029.065-2.825 6.534-9.712 8.704a.221.221 0 0 1-.064.01" fill="#000"/>
        <path d="M249 166.151c-4.745-10.929-9.699-21.418-11.843-22.97-4.686-3.394-35.623-3.704-35.623-3.704s-22.5-1.157-34.375.89c0 0-13.125.5-19.687 13.923-1.682 3.44-3.58 7.592-5.472 11.861h107" fill="#F75553"/>
        <path fill="#21111D" d="m160.523 166.151-.523-.144 2.477-12.856.523.145-2.477 12.855M228.477 166.151 226 153.296l.523-.145L229 166.007l-.523.144"/>
        <path d="M195.532 151.151c-3.718.024-6.694-4.117-6.525-9.081l.438-12.919h11.738l.794 12.58c.319 5.053-2.652 9.395-6.445 9.42" fill="#FE9F73"/>
        <path d="M189 133.762c2.042 4.76 11.06 4.37 12-.315l-.285-4.296h-11.55l-.165 4.611" fill="#F07162"/>
        <path d="M203.358 110.276c-.548-1.09-1.263-1.817-1.961-2.304-1.421-.649-3.747-1.494-6.712-1.82h-.37c-2.965.326-5.29 1.171-6.712 1.82-.698.487-1.413 1.215-1.96 2.304-.262 2.012-.58 5.722-.64 9.43-.053 3.332.846 6.624 2.694 9.32 1.393 2.032 3.394 3.851 6.164 4.12.193.004.392.004.597.005h.084c.205-.001.404-.001.597-.005 2.77-.269 4.771-2.088 6.164-4.12 1.846-2.696 2.747-5.988 2.695-9.32-.06-3.708-.38-7.418-.64-9.43" fill="#FE9F73"/>
        <path d="M202 121.15a3 3 0 1 0 6.001.001 3 3 0 0 0-6.001 0" fill="#FE9F73"/>
        <path d="M204.984 123.151c.512 0 .856-.423.969-.846.133-.499-.02-.985-.39-1.237-.53-.36-1.008-.15-1.268.03.104-.285.265-.493.477-.623.48-.287 1.07-.077 1.076-.074.042.015.086-.01.1-.055.014-.045-.008-.093-.05-.108-.026-.01-.662-.237-1.201.087-.311.188-.523.519-.63.984l-.067.298.199-.216c.025-.026.6-.641 1.281-.178.376.256.408.722.323 1.044-.09.337-.363.728-.832.722-.042 0-.078.037-.078.085-.002.047.033.086.076.087h.015" fill="#F07162"/>
        <path d="M187 121.15a3 3 0 1 1-6 .001 3 3 0 0 1 6 0" fill="#FE9F73"/>
        <path d="M184.016 123.151c-.512 0-.856-.423-.969-.846-.133-.499.02-.985.39-1.237.53-.36 1.008-.15 1.268.03-.104-.285-.265-.493-.477-.623-.48-.287-1.07-.077-1.076-.074-.042.015-.086-.01-.1-.055-.014-.045.008-.093.05-.108.028-.01.662-.237 1.201.087.311.188.523.519.63.984l.067.298-.199-.216c-.025-.026-.6-.641-1.281-.178-.376.256-.408.722-.323 1.044.092.337.363.728.832.722.042 0 .078.037.08.085 0 .047-.035.086-.078.087h-.015" fill="#F07162"/>
        <path d="M192 120.151a.999.999 0 1 1-1.998.002.999.999 0 0 1 1.998-.002M198 120.151a.999.999 0 1 0 1.998.002.999.999 0 0 0-1.998-.002M202.402 118.151a.634.634 0 0 1-.385-.129c-1.716-1.315-4.204-.586-4.23-.578-.311.094-.651-.057-.755-.338-.106-.284.06-.589.372-.685.128-.039 3.146-.938 5.386.778a.506.506 0 0 1 .069.76.629.629 0 0 1-.457.192M188.596 118.151a.617.617 0 0 1-.464-.206.535.535 0 0 1 .089-.784c2.278-1.725 5.264-.726 5.389-.684.309.107.466.427.354.716-.112.29-.455.437-.762.332-.026-.008-2.485-.82-4.233.503a.619.619 0 0 1-.373.123" fill="#000"/>
        <path d="M186 124.151s1.127 9.127 8 8.999l-8-8.999M203 124.517s-1.127 8.753-8 8.633l5.044-11.999 2.956 3.366" fill="#FE9F73"/>
        <path d="m195.88 124.151-.012-.001-1.868-.217.415-5.643c.006-.085.066-.145.132-.138.067.007.117.08.11.165l-.392 5.34 1.625.19c.067.007.117.08.11.165-.007.079-.06.14-.12.14" fill="#F07162"/>
        <path d="M199 104.443c-1.409-.347-10.324-4.279-14.724-3.057-4.4 1.221-1.312 13.743.08 14.697 1.391.955 1.072-8.437 1.195-8.514.122-.076 8.459.534 8.459.534l4.99-3.66" fill="#000"/>
        <path d="M198 104.483c.268-.039 4.089-.753 6.564.043 2.718.872 2.777 7.024 2.018 8.495-.76 1.469-1.26 5.13-1.26 5.13s-2.123-6.084-2.57-7.514c-.448-1.43-4.752-6.154-4.752-6.154" fill="#000"/>
        <path d="M193 126.268c.062-.014 4-.117 4-.117s-.497 1.957-1.96 2c-1.464.044-2.04-1.883-2.04-1.883" fill="#FBFDFC"/>
        <path d="M194.983 152.151c-7.543-.222-7.98-10.87-7.983-10.976l.618-.024c.002.103.42 10.153 7.382 10.36l-.017.64M136 175.151h2v-157h-2zM264 176.151h2v-157h-2z" fill="#21111D"/>
        <path d="M359.846 121.151s.42 6.665 3.733 9.607c3.312 2.942 11.482 6.237 11.42 14.124-.063 7.885-15.695 10.945-19.356 10.827-3.66-.118-9.244 11.498-10.386-2.372-1.143-13.87-7.486-12.202-2.15-17.623 5.34-5.423 6.99-4.92 9.768-8.999 2.777-4.078 6.971-5.564 6.971-5.564" fill="#49263E"/>
        <path d="M324.014 121.445 324 142.017l4.593 11.134s12.86-3.039 12.758-4.082c-.104-1.045 2.052-15.83 1.582-16.428-.471-.595-6.057-13.234-8.194-13.474-2.137-.24-10.725 2.278-10.725 2.278" fill="#49263E"/>
        <path d="M324 122.652c0 9.664 7.836 17.5 17.5 17.5 9.666 0 17.5-7.836 17.5-17.5 0-9.666-7.834-17.5-17.5-17.5-9.664 0-17.5 7.834-17.5 17.5" fill="#49263E"/>
        <path d="M291 167.151c4.48-10.523 9.155-20.624 11.179-22.12 4.425-3.27 33.626-3.566 33.626-3.566s21.238-1.114 32.448.855c0 0 12.388.482 18.583 13.409 1.588 3.313 3.379 7.31 5.164 11.422H291" fill="#3F9896"/>
        <path fill="#21111D" d="M374.45 167.151 372 155.294l.55-.143 2.45 11.86-.55.14M310.55 167.151l-.55-.14 2.45-11.86.55.143-2.45 11.857"/>
        <path d="M341.97 152.151c3.433.023 6.179-3.743 6.024-8.257l-.403-11.743h-10.836l-.733 11.435c-.295 4.595 2.448 8.543 5.948 8.565" fill="#FE9F73"/>
        <path d="M347 136.762c-1.873 4.76-10.14 4.37-11-.314l.263-4.297h10.586l.151 4.611" fill="#F07162"/>
        <path d="M332.641 114.124a5.911 5.911 0 0 1 1.962-2.218c1.422-.627 3.747-1.44 6.713-1.755h.368c2.966.316 5.29 1.128 6.713 1.755a5.911 5.911 0 0 1 1.962 2.218c.261 1.937.579 5.51.639 9.08.054 3.208-.847 6.38-2.695 8.976-1.392 1.956-3.393 3.708-6.164 3.968-.192.001-.393.003-.597.003h-.084c-.204 0-.405-.002-.597-.003-2.77-.26-4.772-2.012-6.164-3.968-1.848-2.596-2.749-5.768-2.695-8.976.06-3.57.38-7.143.64-9.08" fill="#FE9F73"/>
        <path d="M335 125.15a3 3 0 1 1-6 .002 3 3 0 0 1 6-.002" fill="#FE9F73"/>
        <path d="M332.016 127.151c-.513 0-.856-.422-.969-.845-.133-.499.02-.985.39-1.238.529-.359 1.008-.15 1.268.031-.105-.285-.264-.495-.478-.622-.478-.289-1.07-.08-1.075-.076-.042.014-.086-.01-.1-.055-.013-.044.01-.093.05-.108.027-.01.663-.237 1.2.088.312.187.524.519.63.985l.068.299-.199-.219c-.025-.025-.6-.64-1.28-.177-.377.256-.41.722-.323 1.044.09.338.362.728.83.721.043 0 .08.038.08.085 0 .048-.034.087-.077.087h-.015" fill="#F07162"/>
        <path d="M349 125.15a3 3 0 1 0 6 .002 3 3 0 0 0-6-.002" fill="#FE9F73"/>
        <path d="M351.984 127.151c.513 0 .856-.422.969-.845.133-.499-.02-.985-.39-1.238-.529-.359-1.008-.15-1.268.031.105-.285.264-.495.478-.622.478-.289 1.07-.08 1.076-.076.041.014.085-.01.099-.055.013-.044-.01-.093-.05-.108-.027-.01-.663-.237-1.2.088-.312.187-.524.519-.63.985l-.068.299.199-.219c.025-.025.6-.64 1.28-.177.377.256.41.722.323 1.044-.09.338-.362.728-.83.721-.043 0-.079.038-.08.085 0 .048.034.087.077.087h.015" fill="#F07162"/>
        <path d="M345 123.15a1 1 0 1 0 2 .004 1 1 0 0 0-2-.004M339 123.15a1 1 0 1 1-2 .004 1 1 0 0 1 2-.004" fill="#000"/>
        <path d="M350 128.151s-1.125 8.113-8 8l8-8M334 127.237s1.127 8.022 8 7.913l-5.044-10.999-2.956 3.086" fill="#FE9F73"/>
        <path d="M338.165 121.151a.156.156 0 0 0 .108-.044c1.027-.97 2.494-.434 2.508-.43.086.033.182-.019.21-.116.03-.096-.017-.2-.103-.234-.067-.025-1.658-.608-2.83.5a.198.198 0 0 0-.019.259c.032.044.08.065.126.065M346.835 121.151a.157.157 0 0 0 .129-.072.215.215 0 0 0-.026-.27c-1.191-1.127-2.763-.47-2.83-.442-.086.037-.129.148-.098.246.031.1.127.153.212.117.014-.007 1.464-.608 2.51.379.03.03.067.042.103.042" fill="#49263E"/>
        <path d="M337.725 111.467s.555 4.597 7.07 5.633c6.517 1.034 6.08 11.353 6.08 11.353s7.283 10.022 7.55 7.196c.265-2.828 1.15-10.176 0-12.596-1.152-2.421-2.089-8.516-4.364-10.017-2.275-1.502.125-.84-3.995-2.584-4.12-1.744-2.767-2.45-6.984-2.275-4.215.178-3.485-.175-5.267.443-1.78.618-.09 2.847-.09 2.847" fill="#49263E"/>
        <path d="M336.865 108.407s1.525 5.524 1.04 6.94c-.484 1.417-4.785 6.804-4.785 6.804s-1.817-3.442-1.247-4.975c.573-1.534-2.458-1.139-1.77-1.896.685-.758 6.508-7.129 6.508-7.129l.254.256" fill="#49263E"/>
        <path d="M328 106.151a5 5 0 0 0 5 5 5 5 0 0 0 5-5 5 5 0 0 0-5-5 5 5 0 0 0-5 5M346 106.151a5 5 0 0 0 5 5 5 5 0 0 0 5-5 5 5 0 0 0-5-5 5 5 0 0 0-5 5" fill="#49263E"/>
        <path d="M354.495 110.151c.134 0 .27-.05.369-.15a.456.456 0 0 0-.018-.667l-.023-.025c-.771-.764-3.644-3.324-8.222-4.149a.504.504 0 0 0-.592.38c-.052.258.128.507.402.557 4.283.773 6.96 3.157 7.678 3.87.03.029.05.049.06.056a.52.52 0 0 0 .346.128M329.515 111.151c.13 0 .26-.052.362-.159a1.32 1.32 0 0 0 .057-.064c.704-.84 3.337-3.661 7.665-4.702.277-.065.451-.358.388-.65-.063-.293-.338-.48-.617-.41-4.627 1.112-7.452 4.137-8.207 5.038l-.026.03c-.19.22-.182.56.02.765a.5.5 0 0 0 .358.152" fill="#F75553"/>
        <path d="M345.788 115.151h-.007c-4.391-.135-7.59-3.507-7.726-3.65a.206.206 0 0 1 .013-.294.21.21 0 0 1 .298.012c.032.033 3.216 3.386 7.428 3.516.116.004.208.1.206.215a.211.211 0 0 1-.212.201M370.783 141.151a.216.216 0 0 1-.203-.133c-.878-2.231-2.975-3.7-5.405-5.401-1.198-.838-2.437-1.708-3.704-2.77-5.56-4.662-5.473-10.437-5.47-10.496a.204.204 0 0 1 .22-.199c.12.004.215.098.211.21-.002.056-.078 5.647 5.327 10.18 1.253 1.05 2.484 1.912 3.674 2.746 2.485 1.74 4.63 3.242 5.554 5.588a.201.201 0 0 1-.127.262.22.22 0 0 1-.077.013" fill="#21111D"/>
        <path d="M342.412 127.151c.046 0 .088-.028.099-.068.011-.047-.022-.093-.077-.104-.65-.12-1.06-.81-1.177-1.035.922-.427 1.485-.979 1.673-1.646.306-1.087-.491-2.069-.524-2.11a.115.115 0 0 0-.141-.022c-.046.029-.057.084-.024.122.006.01.777.961.494 1.97-.18.635-.736 1.162-1.654 1.568l-.081.036.033.072c.02.044.479 1.052 1.36 1.215l.02.002M343.588 129.151a.906.906 0 0 0 .57-.206c.61-.477.83-1.607.84-1.655.01-.056-.012-.117-.05-.134-.04-.018-.078.017-.089.075-.003.01-.213 1.089-.768 1.522-.29.225-.624.24-.995.046-.038-.02-.078.01-.092.067-.013.056.007.119.044.137.188.1.369.148.54.148" fill="#F07162"/>
        <path fill="#21111D" d="m324.594 150.151-1.594-3.66.405-.34 1.595 3.66-.406.34M324.523 154.151l-2.523-5.69.477-.31 2.523 5.691-.477.31"/>
        <path d="M344 124.201c-.067 0-.067-.1 0-.1s.067.1 0 .1M345 125.201c-.067 0-.067-.1 0-.1s.067.1 0 .1M343 125.201c-.066 0-.067-.1 0-.1s.067.1 0 .1M346 124.201c-.067 0-.067-.1 0-.1s.067.1 0 .1M347 125.201c-.067 0-.067-.1 0-.1s.067.1 0 .1M348 124.201c-.067 0-.067-.1 0-.1s.067.1 0 .1M340 124.201c-.066 0-.067-.1 0-.1s.067.1 0 .1M339 125.201c-.066 0-.067-.1 0-.1s.067.1 0 .1M338 124.201c-.067 0-.067-.1 0-.1s.067.1 0 .1M338 125.201c-.067 0-.067-.1 0-.1s.067.1 0 .1M337 124.201c-.067 0-.067-.1 0-.1s.067.1 0 .1M336.004 125.201h-.01l-.016-.004-.015-.01-.01-.016-.003-.02.002-.012.01-.022.01-.008a.043.043 0 0 1 .023-.008h.01l.017.005.014.01.01.016.004.02-.002.012-.012.022-.008.008a.04.04 0 0 1-.024.007M334.973 124.188l-.01-.01-.01-.014-.003-.018.003-.017.01-.014.01-.008a.051.051 0 0 1 .022-.006l.012.002.02.012.01.01.009.014.004.018-.004.017-.01.014-.008.007a.042.042 0 0 1-.023.006l-.012-.001-.02-.012" fill="#F07162"/>
        <path fill="#21111D" d="M138 175.151h257v-9H138z"/>
        <path d="M367 90.151c-4.301-10.119-8.792-19.831-10.735-21.269-4.25-3.143-32.295-3.428-32.295-3.428s-20.397-1.072-31.161.82c0 0-11.9.465-17.848 12.894-1.524 3.186-3.245 7.03-4.961 10.983h97" fill="#61A3C5"/>
        <path fill="#21111D" d="m287.567 90.151-.567-.134 2.433-10.866.567.135-2.433 10.865M349.433 90.151 347 79.286l.567-.135L350 90.017l-.567.134"/>
        <path d="M318.526 76.151c-3.146.021-5.662-3.555-5.52-7.843l.369-11.157h9.933l.672 10.865c.27 4.363-2.244 8.114-5.454 8.135" fill="#FE9F73"/>
        <path d="M314 61.187c1.703 4.163 9.216 3.822 10-.276l-.238-3.76h-9.626L314 61.187" fill="#F07162"/>
        <path d="M326.391 39.972c-.518-1.01-1.195-1.684-1.858-2.133-1.347-.602-3.55-1.384-6.358-1.688h-.35c-2.809.304-5.013 1.086-6.36 1.688-.66.45-1.338 1.123-1.858 2.133-.246 1.862-.548 5.298-.605 8.73-.05 3.085.803 6.134 2.554 8.63 1.319 1.88 3.215 3.566 5.838 3.814.182.003.372.004.567.005h.078c.195 0 .383-.002.568-.005 2.622-.248 4.518-1.933 5.837-3.814 1.751-2.496 2.603-5.545 2.554-8.63-.057-3.432-.36-6.868-.607-8.73" fill="#FE9F73"/>
        <path d="M325 50.151a3 3 0 1 0 6.001-.001 3 3 0 0 0-6.001.001" fill="#FE9F73"/>
        <path d="M327.984 52.151c.512 0 .855-.422.969-.845.133-.5-.02-.986-.39-1.238-.529-.36-1.009-.15-1.269.03.104-.285.265-.494.478-.622.478-.288 1.07-.078 1.076-.075.041.015.085-.01.1-.055.013-.045-.01-.093-.05-.109-.027-.01-.662-.236-1.202.088-.31.188-.522.519-.63.985l-.066.298.198-.217c.025-.026.602-.64 1.281-.177.376.255.408.722.322 1.044-.09.337-.36.728-.83.722-.043-.002-.078.037-.08.084 0 .048.034.086.078.087h.015" fill="#F07162"/>
        <path d="M312 50.151a3 3 0 1 1-5.999.002A3 3 0 0 1 312 50.15" fill="#FE9F73"/>
        <path d="M308.016 52.151c-.513 0-.856-.422-.969-.845-.133-.5.02-.986.39-1.238.529-.36 1.009-.15 1.269.03-.106-.285-.265-.494-.478-.622-.48-.288-1.07-.078-1.076-.075-.041.015-.085-.01-.1-.055-.013-.045.008-.093.05-.109.027-.01.662-.236 1.2.088.313.188.524.519.63.985l.068.298-.2-.217c-.023-.026-.6-.64-1.28-.177-.375.255-.407.722-.323 1.044.091.337.363.728.832.722.043-.002.078.037.078.084.002.048-.032.086-.076.087h-.015" fill="#F07162"/>
        <path d="M316 48.651a.5.5 0 1 1-1.001 0 .5.5 0 0 1 1.001 0M322 48.651a.5.5 0 1 0 1 .001.5.5 0 0 0-1 0M324.502 47.151a.471.471 0 0 1-.32-.128c-1.431-1.317-3.505-.586-3.525-.579-.26.094-.543-.057-.63-.34-.088-.281.05-.586.31-.682.107-.04 2.623-.94 4.488.778a.573.573 0 0 1 .057.76.481.481 0 0 1-.38.191M312.496 47.151a.476.476 0 0 1-.386-.207.606.606 0 0 1 .074-.784c1.9-1.723 4.386-.726 4.491-.683.256.107.39.427.294.716-.093.289-.379.437-.635.332-.02-.008-2.07-.819-3.527.503a.458.458 0 0 1-.311.123" fill="#000"/>
        <path d="M311 53.151s.985 8.113 7 8l-7-8M326 52.237s-.985 8.023-7 7.913l4.414-10.999L326 52.237" fill="#FE9F73"/>
        <path d="M319.868 53.151h-.012L318 52.933l.41-5.63c.008-.092.071-.157.145-.151.072.008.126.09.12.182l-.388 5.296 1.593.186c.073.009.127.09.12.183-.007.087-.065.152-.132.152" fill="#F07162"/>
        <path d="M322 34.034c-5.112-3.549-10.85-3.768-13.503-.95-2.882 3.062-.936 11.097.317 12.003 1.252.906.965-8.012 1.076-8.084.11-.073 7.615.507 7.615.507L322 34.034" fill="#000"/>
        <path d="M321 34.456c.243-.036 3.709-.691 5.953.039 2.466.802 2.152 6.317 1.831 7.798-.67 3.092-1.126 4.858-1.126 4.858s-1.943-5.733-2.348-7.045c-.405-1.312-4.31-5.65-4.31-5.65" fill="#000"/>
        <path d="M317 53.27c.047-.015 3-.119 3-.119s-.374 1.957-1.47 2c-1.098.043-1.53-1.882-1.53-1.882" fill="#FBFDFC"/>
        <path d="M317.984 78.151c-6.6-.202-6.982-9.88-6.984-9.978l.593-.022c.003.092.366 9.173 6.407 9.359l-.016.641" fill="#21111D"/>
        <path d="m308 42.172.767 5.56s1.02-.068 1.472.149c0 0-.032-7.805 1.854-8.145 1.889-.339 4.828 1.413 6.791.396s2.938-3.6 2.938-3.6-.088 3.091 1.625 4.109c1.713 1.017 3.458 7.51 3.458 7.51s.635-.381 1.095-.418c0 0-1.08-7.77-1.307-8.223-.227-.452-4.942-3.922-4.942-3.922s-2.384-.143-3.998-.258c-1.616-.115-4.822-.337-5.66 0-.835.337-2.596.224-2.596 1.298s-.772.848-.272 2.091c.5 1.243-1.225 3.453-1.225 3.453" fill="#000"/>
        <path d="m321 34.859.346-.708s1.284.846 4.277.708c2.996-.137 3.04 8.993 2.972 9.167-.065.173.405 3.66.405 3.66s-.883-.205-2.013.465c0 0-1.395-8.286-1.573-8.95-.176-.665-4.414-4.342-4.414-4.342" fill="#000"/>
        <path fill="#21111D" d="M136 92.151h258v-2H136z"/>
        <path d="M313.353 132.151h-35.704a3.642 3.642 0 0 1-3.649-3.635v-17.728a3.643 3.643 0 0 1 3.65-3.637h35.703a3.642 3.642 0 0 1 3.647 3.637v17.728a3.642 3.642 0 0 1-3.647 3.635" fill="#F3FFFE"/>
        <path fill="#F3FFFE" d="m315.454 121.151 5.546 6-8-2.532 2.454-3.468M341.621 56.151h42.76c1.998 0 3.619-1.611 3.619-3.6v-21.8c0-1.988-1.62-3.6-3.62-3.6h-42.759c-2 0-3.621 1.612-3.621 3.6v21.8c0 1.989 1.62 3.6 3.621 3.6"/>
        <path d="M96 53.151c-6.075 0-11-4.925-11-11s4.925-11 11-11 11 4.925 11 11-4.925 11-11 11M96 86.151c-6.075 0-11-4.925-11-11s4.925-11 11-11 11 4.925 11 11-4.925 11-11 11M96 118.151c-6.075 0-11-4.925-11-11s4.925-11 11-11 11 4.925 11 11-4.925 11-11 11M96 151.151c-6.075 0-11-4.925-11-11 0-6.074 4.925-11 11-11s11 4.926 11 11c0 6.075-4.925 11-11 11M130.254 47.151h-21.508c-.412 0-.746-.447-.746-1 0-.552.334-1 .746-1h21.508c.412 0 .746.448.746 1 0 .553-.334 1-.746 1M123.279 42.151h-14.558c-.398 0-.721-.447-.721-1 0-.552.323-1 .721-1h14.558c.398 0 .721.448.721 1 0 .553-.323 1-.721 1M130.254 79.151h-21.508c-.412 0-.746-.447-.746-1 0-.552.334-1 .746-1h21.508c.412 0 .746.448.746 1 0 .553-.334 1-.746 1M123.279 74.151h-14.558c-.398 0-.721-.447-.721-1 0-.552.323-1 .721-1h14.558c.398 0 .721.448.721 1 0 .553-.323 1-.721 1M130.254 110.151h-21.508c-.412 0-.746-.448-.746-1 0-.551.334-1 .746-1h21.508c.412 0 .746.449.746 1 0 .552-.334 1-.746 1M123.279 105.151h-14.558c-.398 0-.721-.448-.721-1 0-.554.323-1 .721-1h14.558c.398 0 .721.446.721 1 0 .552-.323 1-.721 1M130.254 142.151h-21.508c-.412 0-.746-.448-.746-1 0-.551.334-1 .746-1h21.508c.412 0 .746.449.746 1 0 .552-.334 1-.746 1M123.279 137.151h-14.558c-.398 0-.721-.448-.721-1 0-.551.323-1 .721-1h14.558c.398 0 .721.449.721 1 0 .552-.323 1-.721 1" fill="#AAD1E2"/>
        <path fill="#F3FFFE" d="m217.895 113.151-4.895 4 6-.81-1.105-3.19"/>
        <path d="M257.397 124.151H220.6c-1.988 0-3.601-1.633-3.601-3.648V101.8c0-2.014 1.613-3.648 3.601-3.648h36.796c1.99 0 3.603 1.634 3.603 3.648v18.704c0 2.015-1.613 3.648-3.603 3.648M186.105 41.151l4.895 4-6-.81 1.105-3.19" fill="#F3FFFE"/>
        <path d="M146.602 52.151h36.795c1.99 0 3.603-1.633 3.603-3.649V29.8c0-2.015-1.613-3.649-3.603-3.649h-36.795c-1.99 0-3.602 1.634-3.602 3.65v18.701c0 2.016 1.613 3.65 3.602 3.65M339.857 39.151l-5.857 5 7-.752-1.143-4.248" fill="#F3FFFE"/>
        <path d="M112 141.896s-2.318-32.188-14.86-25.94c-12.54 6.246-22.765 47.264-24.128 48.488-1.363 1.222-.955 38.707-.955 38.707l14.587-7.332s3.88-89.6 25.356-53.923" fill="#258D8C"/>
        <path d="M98 74.151s-27.899 25.133-35.511 68.225c-7.613 43.093 16.443 55.775 16.443 55.775s3.423-90.609 19.068-124" fill="#7FC6A6"/>
        <path d="M46.337 204.578S41.647 112.898 18 73.15c0 0 41.517 24.818 55.282 89.959.775 3.667 1.235 7.742 1.822 11.668.61 4.085.975 7.702.882 11.312-.165 6.378-1.048 11.86-1.308 15.889-2.242 34.805-28.341 2.599-28.341 2.599" fill="#258D8C"/>
        <path d="M46.9 165.687c-1.606-13.055-6.55-25.498-14.494-35.966-5.739-7.56-12.383-13.306-17.57-9.205C3.305 129.627 1 186.207 1 186.207s13.021-39.17 18.718-36.586c5.697 2.585 10.987 55.764 10.987 55.764L52 207.151l-5.1-41.464" fill="#7FC6A6"/>
        <path d="M75.829 201.151c.881-19.935-1.64-39.069-7.497-56.869a147.782 147.782 0 0 0-20.266-39.9c-14.92-20.834-30.528-31.13-30.684-31.23l-.382.575c.155.101 15.672 10.34 30.517 31.078 13.696 19.134 29.605 51.375 27.617 96.316l.695.03M78.697 198.151c.008-.225.9-22.92 3.717-49.395C85.013 124.34 89.826 91.63 98 74.446l-.63-.295c-8.217 17.27-13.046 50.066-15.65 74.536-2.82 26.498-3.711 49.212-3.72 49.44l.697.024M86.692 195.151c.006-.148.665-14.984 2.837-30.018 2.856-19.767 6.984-30.89 11.937-32.164 2.925-.752 6.27 1.948 9.942 8.024l.592-.36c-3.85-6.37-7.45-9.174-10.706-8.337-5.32 1.369-9.51 12.385-12.451 32.743-2.177 15.067-2.837 29.934-2.843 30.082l.692.03M51.312 207.151l.688-.086-5.132-41.75c-1.637-13.325-6.703-25.904-14.65-36.383-5.03-6.635-9.5-10.242-13.282-10.725-1.786-.227-3.43.24-4.885 1.394-4.884 3.863-8.732 16.224-11.438 36.74C.603 171.57.006 185.862 0 186.005l.693.027c.023-.568 2.445-56.913 13.787-65.885 1.304-1.031 2.774-1.451 4.369-1.249 3.59.458 7.904 3.975 12.818 10.456 7.872 10.38 12.89 22.844 14.513 36.045l5.132 41.752" fill="#21111D"/>
        <path fill="#21111D" d="m33.398 165.151.602-.317-4.398-8.683-.602.315 4.398 8.685M33.406 170.151l.594-.353-4.406-8.647-.594.354 4.406 8.646M75.704 112.151 80 103.448l-.704-.297L75 111.855l.704.296M75.625 116.151 79 110.474l-.625-.323L75 115.83l.625.322M95.275 122.151l5.725-3.375-.275-.625L95 121.525l.275.626M94.34 125.151l3.66-2.397-.34-.603L94 124.55l.34.602"/>
        <path d="M94 193.065s-1.223 66.623-19.215 65.06h-30.57C26.223 259.687 25 193.064 25 193.064c17.026-2.551 51.974-2.551 69 0" fill="#F75553"/>
        <path fill="#21111D" d="m51.5 222.151.5-.47-19.5-20.53-.5.47 19.5 20.53M48.493 228.151l.507-.458-10.493-12.542-.507.459 10.493 12.541"/>
        <path fill="#61A3C5" d="M132.59 203.151H114l4.655 56h28.187l4.158-56h-18.41"/>
        <path d="M146.13 194.151h-27.26c-1.585 0-2.87 1.344-2.87 3h33c0-1.656-1.285-3-2.87-3" fill="#21111D"/>
        <path d="M150.397 198.623a1.875 1.875 0 0 0-1.84-1.472h-33.114c-.89 0-1.657.615-1.84 1.472l-1.562 7.29c-.247 1.153.645 2.238 1.84 2.238h36.237c1.196 0 2.088-1.085 1.84-2.238l-1.56-7.29" fill="#44243D"/>
        <path fill="#FEC786" d="m114 220.151 1.233 23h33.534l1.233-23h-36"/>
        <path d="M142 232.151a9 9 0 1 1-18.001 0 9 9 0 0 1 18.001 0" fill="#F3FFFE"/>
        <path fill="#21111D" d="M149 243.151h-33.753L114 220.186l.642-.035 1.214 22.36H149v.64M141.59 215.151l-.59-.316 3.41-5.684.59.317-3.41 5.683M141.48 218.151l-.48-.365 2.52-5.635.48.363-2.52 5.637"/>
        <path fill="#F75553" d="M333 242.151h94v-18h-94z"/>
        <path fill="#E24444" d="M344 242.151h6v-18h-6zM410 242.151h6v-18h-6z"/>
        <path fill="#21111D" d="m393.565 233.151-.565-1.095 7.437-3.905.563 1.096-7.435 3.904M398.568 235.151l-.568-1.166 7.434-4.834.566 1.17-7.432 4.83"/>
        <path fill="#61A3C5" d="M295 258.151h123v-16H295z"/>
        <path fill="#256898" d="M309 258.151h8v-16h-8zM398 258.151h8v-16h-8z"/>
        <path fill="#21111D" d="m321.565 253.151-.565-1.315 7.435-4.685.565 1.315-7.435 4.685M325.566 254.151 325 252.79l7.432-5.639.568 1.364-7.434 5.636M5 260.151h429v-2H5z"/>
    </g>
</svg>
