<svg xmlns="http://www.w3.org/2000/svg" width="75" height="67" viewBox="0 0 75 67">
    <g fill="none" fill-rule="evenodd">
        <g fill="#DBDBDB" fill-rule="nonzero">
            <g>
                <g>
                    <path d="M30.798 13.794c1.917-.785 2.72-3.019 1.855-4.83l-3.03-6.22C28.757.994 26.654.208 24.799.994c-5.257 2.174-9.771 5.012-13.358 8.453-4.39 4.045-7.36 8.695-8.967 13.827C.866 28.468 0 35.532 0 44.53v18.537c0 1.993 1.67 3.623 3.71 3.623h24.305c2.04 0 3.71-1.63 3.71-3.623v-23.73c0-1.993-1.67-3.623-3.71-3.623H16.388c.124-6.1 1.608-10.99 4.33-14.673 2.226-2.958 5.565-5.373 10.08-7.246zM72.86 13.746c1.863-.786 2.644-3.022 1.803-4.835L71.72 2.747C70.878.994 68.835.208 67.033.994c-5.047 2.176-9.374 5.016-12.918 8.4-4.266 4.11-7.21 8.764-8.772 13.901C43.78 28.371 43 35.443 43 44.51v18.554c0 1.994 1.622 3.626 3.605 3.626h23.612c1.983 0 3.605-1.632 3.605-3.626V39.31c0-1.995-1.622-3.626-3.605-3.626H58.862c.12-6.105 1.562-11 4.205-14.687 2.163-2.96 5.408-5.378 9.794-7.252z" transform="translate(-355 -5214) translate(355 5174) translate(0 40)"/>
                </g>
            </g>
        </g>
    </g>
</svg>
