<?xml version="1.0" encoding="UTF-8"?>
<svg width="76px" height="68px" viewBox="0 0 76 68" version="1.1" xmlns="http://www.w3.org/2000/svg" xmlns:xlink="http://www.w3.org/1999/xlink">
    <title>2E1A94C6-4286-4473-9820-795B840765C5</title>
    <g id="30-Market-Place" stroke="none" stroke-width="1" fill="none" fill-rule="evenodd">
        <g id="v3-1-0-0-Beranda" transform="translate(-1015.000000, -6062.000000)" fill="#DBDBDB" fill-rule="nonzero">
            <g id="Group-54" transform="translate(355.000000, 5835.000000)">
                <g id="Group-67" transform="translate(660.000000, 227.689152)">
                    <path d="M73.7308954,13.3037985 C75.7061118,12.5069371 76.5344283,10.2389468 75.6423951,8.40003579 L72.5202789,2.08644132 C71.6282457,0.309440317 69.4618793,-0.488034091 67.5503796,0.309440317 C62.1344637,2.51613353 57.4831478,5.39709411 53.7875816,8.89102503 C49.2636989,12.9973133 46.2052994,17.7171849 44.5486663,22.9274328 C42.8920332,28.1995906 42,35.3707306 42,44.5039886 L42,63.322178 C42,65.3449801 43.7203498,67 45.8229994,67 L70.8636458,67 C72.9662955,67 74.6866453,65.3449801 74.6866453,63.322178 L74.6866453,39.2324437 C74.6866453,37.2090287 72.9662955,35.5546217 70.8636458,35.5546217 L58.8849142,35.5546217 C59.0123475,29.3630083 60.5415473,24.3985616 63.3450802,20.6588296 C65.6388799,17.6565009 69.0795794,15.2046195 73.7308954,13.3037985 Z" id="Path" transform="translate(59.000000, 33.500000) scale(-1, -1) translate(-59.000000, -33.500000) "></path>
                    <path d="M29.8606048,13.2542865 C31.7231375,12.4566994 32.5035987,10.1866438 31.6630558,8.34605819 L28.7190525,2.08868063 C27.8779087,0.309447866 25.8351309,-0.488139234 24.0326799,0.309447866 C18.9858171,2.5181506 14.6593339,5.40173474 11.1151145,8.83749455 C6.84871295,13.0094886 3.90531048,17.7336584 2.34258547,22.9486509 C0.78046128,28.1016771 0,35.2805746 0,44.4835026 L0,63.3188288 C0,65.3434729 1.62220589,67 3.60490198,67 L27.21701,67 C29.1997061,67 30.821912,65.3434729 30.821912,63.3188288 L30.821912,39.2071572 C30.821912,37.1818995 29.1997061,35.525986 27.21701,35.525986 L15.8615687,35.525986 C15.9817321,29.3287342 17.4242937,24.3597666 20.0672877,20.616629 C22.2302289,17.6109527 25.4746407,15.1568385 29.8606048,13.2542865 Z" id="Path" transform="translate(16.000000, 33.500000) scale(-1, -1) translate(-16.000000, -33.500000) "></path>
                </g>
            </g>
        </g>
    </g>
</svg>