<svg xmlns="http://www.w3.org/2000/svg" width="414" height="424" viewBox="0 0 414 424">
    <g fill="none" fill-rule="evenodd" opacity=".346">
        <g fill="#0070BA">
            <g>
                <g>
                    <path d="M1103.057-27c-9.485 17.164-25.495 28.923-48.032 35.278-33.805 9.533-50.993 20.778-92.002 13.263-41.01-7.514-91.25-22.699-126.091 0-34.84 22.7-74.164 94.2-81.607 157.849-7.444 63.649 17.08 124.984 58.595 145.345 41.514 20.362 87.145-1.33 97.02 33.342 9.875 34.67 28.178 69.92 42.34 87.738 14.163 17.818 106.607 64.795 181.472-74.01 49.91-92.538 63.365-222.5 40.364-389.885l-72.06-8.92z" transform="translate(-1151 -5174) translate(355 5174) translate(42)"/>
                </g>
            </g>
        </g>
    </g>
</svg>
